# xmcd
#
# Track frame offsets: 
#        150
#        22852
#        47581
#        77708
#        95075
#        120568
#        152895
#        186057
#        231401
#
# Disc length: 3352 seconds
#
# Revision: 0
# Processed by: cddbd v1.5.1PL0 Copyright (c) Steve Scherf et al.
# Submitted via: ExactAudioCopy v0.95a5
#
DISCID=690d1609
DTITLE=Hot Tuna - 1999-07-02 GTE Virgina Beach Amphitheater Virginia B
DTITLE=each, VA
DYEAR=1999
DGENRE=Blues
TTITLE0=Never Happen No More
TTITLE1=I Know You Rider
TTITLE2=Death Don't Have No Mercy
TTITLE3=Do Not Go Gentle 
TTITLE4=Nine Pound Hammer
TTITLE5=Hit Single #1
TTITLE6=Goin' Down The Road Feelin' Bad
TTITLE7=Uncle Sam Blues
TTITLE8=Baby What You Want Me To Do
EXTD=
EXTT0=
EXTT1=
EXTT2=
EXTT3=
EXTT4=
EXTT5=
EXTT6=
EXTT7=
EXTT8=
PLAYORDER=
